<?xml version="1.0" encoding="UTF-8" standalone="no"?>
<!--part of the matt icon theme by sixsixfive released under CC0 (https://creativecommons.org/publicdomain/zero/1.0/) on openclipart-->

<svg
   xmlns:dc="http://purl.org/dc/elements/1.1/"
   xmlns:cc="http://creativecommons.org/ns#"
   xmlns:rdf="http://www.w3.org/1999/02/22-rdf-syntax-ns#"
   xmlns:svg="http://www.w3.org/2000/svg"
   xmlns="http://www.w3.org/2000/svg"
   xmlns:xlink="http://www.w3.org/1999/xlink"
   xmlns:sodipodi="http://sodipodi.sourceforge.net/DTD/sodipodi-0.dtd"
   xmlns:inkscape="http://www.inkscape.org/namespaces/inkscape"
   viewBox="0 0 128 128"
   version="1.1"
   id="svg25"
   sodipodi:docname="icon.svg"
   inkscape:version="0.92.3 (2405546, 2018-03-11)"
   inkscape:export-filename="/media/Development/Android/Projects/Workspace/AsusUpdater/app/src/main/res/mipmap-xxxhdpi/ic_launcher.png"
   inkscape:export-xdpi="144"
   inkscape:export-ydpi="144">
  <metadata
     id="metadata29">
    <rdf:RDF>
      <cc:Work
         rdf:about="">
        <dc:format>image/svg+xml</dc:format>
        <dc:type
           rdf:resource="http://purl.org/dc/dcmitype/StillImage" />
      </cc:Work>
    </rdf:RDF>
  </metadata>
  <sodipodi:namedview
     pagecolor="#ffffff"
     bordercolor="#666666"
     borderopacity="1"
     objecttolerance="10"
     gridtolerance="10"
     guidetolerance="10"
     inkscape:pageopacity="0"
     inkscape:pageshadow="2"
     inkscape:window-width="2560"
     inkscape:window-height="1373"
     id="namedview27"
     showgrid="false"
     inkscape:zoom="5.6568542"
     inkscape:cx="-30.206955"
     inkscape:cy="69.493902"
     inkscape:window-x="0"
     inkscape:window-y="32"
     inkscape:window-maximized="1"
     inkscape:current-layer="svg25" />
  <defs
     id="0">
    <linearGradient
       id="2">
      <stop
         id="F"
         stop-color="#f0ff80"
         style="stop-color:#66bb6a;stop-opacity:1" />
      <stop
         id="G"
         offset="1"
         stop-color="#8bb300"
         style="stop-color:#388e3c;stop-opacity:1" />
    </linearGradient>
    <linearGradient
       id="3">
      <stop
         id="H" />
      <stop
         id="I"
         offset="1"
         stop-opacity="0" />
    </linearGradient>
    <linearGradient
       id="4">
      <stop
         id="J"
         stop-color="#eee" />
      <stop
         id="K"
         offset="1"
         stop-color="#dcdcdc" />
    </linearGradient>
    <radialGradient
       cx="63.894"
       cy="117.35"
       r="53.91"
       id="5"
       xlink:href="#3"
       gradientUnits="userSpaceOnUse"
       gradientTransform="matrix(1,0,0,0.08641975,0,107.20963)" />
    <radialGradient
       cx="60.05"
       cy="51.39"
       r="15.03"
       id="6"
       xlink:href="#4"
       gradientUnits="userSpaceOnUse"
       gradientTransform="matrix(-1.404511,1.1888571,-1,-1.1813958,199.73811,11.750541)" />
    <radialGradient
       cx="64.7"
       cy="-15.174"
       r="55.27"
       id="7"
       xlink:href="#8"
       gradientUnits="userSpaceOnUse"
       gradientTransform="matrix(1.5330966,-3.1358239e-8,2.404893e-8,1.1240308,-33.828167,2.9909361)" />
    <linearGradient
       id="8">
      <stop
         id="L"
         stop-color="#eee" />
      <stop
         id="M"
         offset="1"
         stop-color="#eee"
         stop-opacity="0" />
    </linearGradient>
    <linearGradient
       y1="8.7069998"
       x2="0"
       y2="120.54"
       id="9"
       xlink:href="#2"
       gradientUnits="userSpaceOnUse" />
  </defs>
  <g
     id="1">
    <path
       d="m 122.08898,64.625572 c 0,55.843818 -0.20991,55.918598 -56.734098,55.918598 -56.6581846,0 -56.7340972,0.0573 -56.7340972,-55.918598 0,-55.975886 0.2099063,-55.9185933 56.7340972,-55.9185933 56.792178,0 56.734098,0.2068423 56.734098,55.9185933 z"
       transform="matrix(1.0119373,0,0,1.0266947,-2.1350421,-4.4029736)"
       id="B"
       inkscape:connector-curvature="0"
       style="fill:url(#9);fill-opacity:1.0"
       sodipodi:nodetypes="sssss" />
    <path
       d="m 122.08898,64.625572 c 0,57.956898 1.93399,55.918598 -56.734098,55.918598 -58.6680901,0 -56.7340972,2.0383 -56.7340972,-55.918598 0,-57.9569017 -1.7999992,-55.9185933 56.7340972,-55.9185933 58.802088,0 56.734098,-1.774173 56.734098,55.9185933 z"
       transform="matrix(1.0119373,0,0,1.0266947,-2.1350421,-4.4029736)"
       id="C"
       inkscape:connector-curvature="0"
       style="fill:none;stroke:#003300;stroke-width:3.92400002;stroke-opacity:1"
       sodipodi:nodetypes="sssss" />
    <path
       d="M 65.34375,11.21875 C 9.9050945,11.21875 11.125,10.173633 11.125,64.625 c 0,54.58343 -1.085912,53.40625 54.21875,53.40625 55.17067,0 54.25,1.30756 54.25,-53.40625 0,-54.581741 0.92067,-53.40625 -54.25,-53.40625 z"
       transform="matrix(1.0119373,0,0,1.0266947,-2.1350421,-4.4029736)"
       id="D"
       inkscape:connector-curvature="0"
       style="fill:none;stroke:url(#7);stroke-width:2.079"
       sodipodi:nodetypes="sssss" />
    <path
       d="m 43.579093,24.79147 c -0.55548,0.05443 -0.97912,0.52126 -0.97949,1.07936 l 0,29.142808 -16.97129,0.02 c -0.42175,-0.0019 -0.79949,0.238238 -0.9795,0.61963 -0.17999,0.381399 -0.12965,0.834981 0.13994,1.159318 l 38.7201,46.512559 c 0.20913,0.24918 0.51428,0.38366 0.83957,0.37978 0.32529,-0.004 0.63643,-0.14568 0.83957,-0.39976 L 103.22846,56.792593 c 0.25715,-0.324694 0.29835,-0.765546 0.11994,-1.13933 -0.17841,-0.373785 -0.54533,-0.615316 -0.95951,-0.61963 l -16.971287,-0.02 0.01999,-29.142808 c -0.0016,-0.289259 -0.11341,-0.556891 -0.31984,-0.759549 -0.20643,-0.202656 -0.49033,-0.323571 -0.7796,-0.319811 l -40.65911,0 c -0.0333,-0.0015 -0.06665,-0.0015 -0.09995,0 z"
       id="E"
       fill="#555"
       fill-rule="evenodd"
       stroke-width="3.393"
       style="fill:#003300;fill-opacity:1" />
  </g>
</svg>
